<?xml version="1.0" encoding="iso-8859-1"?>
<!-- Uploaded to: SVG Repo, www.svgrepo.com, Generator: SVG Repo Mixer Tools -->
<svg height="800px" width="800px" version="1.1" id="Layer_1" xmlns="http://www.w3.org/2000/svg" xmlns:xlink="http://www.w3.org/1999/xlink" 
	 viewBox="0 0 511.999 511.999" xml:space="preserve">
<path style="fill:#D50000;" d="M451.923,217.599h-25.259c-58.284,0-106.242,45.227-110.594,102.402H204.452
	c-4.352-57.174-52.31-102.402-110.594-102.402c-26.795,0-52.993,9.557-73.132,25.942l4.011-28.075l46.251-15.36
	c2.304-0.768,4.181-2.56,5.12-4.864c1.024-2.304,0.853-4.864-0.256-7.083l-9.216-18.518l61.356,12.288v10.069
	c0,4.352,3.328,8.021,7.68,8.533l85.335,8.533c3.84,0.341,7.509-1.963,8.875-5.632c4.864-13.312,13.568-22.443,26.624-27.904
	c36.865-15.446,97.196,3.499,123.991,15.702c3.072,1.451,6.827,0.853,9.301-1.536c2.56-2.389,3.413-5.973,2.219-9.216
	l-20.907-55.724c24.918,4.096,47.361,19.798,62.294,41.643h-6.741c-4.693,0-8.533,3.84-8.533,8.533c0,4.693,3.84,8.533,8.533,8.533
	h16.384C447.827,194.132,450.899,205.652,451.923,217.599z"/>
<g>
	<path style="fill:#FFFFFF;" d="M494.932,328.534c0,32.939-26.795,59.734-59.734,59.734s-59.734-26.795-59.734-59.734
		c0-21.078,11.008-39.595,27.563-50.262l24.406,53.761c1.451,3.157,4.523,5.035,7.765,5.035c1.195,0,2.389-0.256,3.499-0.768
		c4.352-1.963,6.229-6.997,4.267-11.264l-24.406-53.846c5.291-1.536,10.838-2.389,16.64-2.389
		C468.137,268.799,494.932,295.595,494.932,328.534z"/>
	<path style="fill:#FFFFFF;" d="M153.593,328.534c0,32.939-26.795,59.734-59.734,59.734s-59.734-26.795-59.734-59.734
		s26.795-59.734,59.734-59.734c26.283,0,48.641,17.152,56.577,40.79l-58.113,10.582c-4.608,0.768-7.68,5.291-6.827,9.899
		c0.683,4.096,4.267,6.997,8.363,6.997c0.512,0,1.024-0.085,1.536-0.171l58.113-10.496
		C153.507,327.083,153.593,327.766,153.593,328.534z"/>
</g>
<path d="M435.197,251.733c-8.277,0-16.299,1.365-23.808,3.84l-8.107-17.835c7.509-1.963,15.275-3.072,23.382-3.072h34.134
	c4.693,0,8.533-3.84,8.533-8.533c0-63.66-51.884-119.469-110.935-119.469c-2.816,0-5.376,1.365-6.997,3.669
	s-1.963,5.205-1.024,7.851l4.011,10.667l-19.542-4.864c-4.523-1.195-9.216,1.621-10.326,6.229
	c-1.109,4.523,1.621,9.216,6.229,10.326l30.977,7.765l7.424,19.968c-33.878-12.288-84.055-23.211-119.213-8.448
	c-15.36,6.4-26.624,16.982-33.537,31.574l-71.34-7.083v-9.387c0-4.096-2.901-7.595-6.827-8.363l-85.335-17.067
	c-3.243-0.597-6.485,0.597-8.448,3.157c-2.048,2.645-2.389,6.144-0.853,9.045l12.63,25.344l-41.899,13.91
	c-3.072,1.024-5.291,3.669-5.717,6.912l-8.533,59.734c-0.512,3.84,1.621,7.68,5.291,9.131c3.584,1.451,7.765,0.256,10.07-2.987
	c17.408-24.064,47.446-39.083,78.423-39.083c43.094,0,79.361,29.184,90.37,68.78l-16.811,3.072
	c-9.558-31.659-38.913-54.785-73.559-54.785c-42.326,0-76.801,34.475-76.801,76.801s34.475,76.801,76.801,76.801
	s76.801-34.475,76.801-76.801c0-1.792-0.171-3.499-0.256-5.205l16.896-3.072c0.256,2.731,0.427,5.461,0.427,8.277
	c0,4.693,3.84,8.533,8.533,8.533h128.002c4.693,0,8.533-3.84,8.533-8.533c0-37.633,22.358-70.06,54.358-85.079l8.704,19.2
	c-22.358,13.483-37.462,37.889-37.462,65.878c0,42.326,34.475,76.801,76.801,76.801s76.801-34.475,76.801-76.801
	S477.523,251.733,435.197,251.733z M93.858,388.268c-32.939,0-59.734-26.795-59.734-59.734s26.795-59.734,59.734-59.734
	c26.283,0,48.641,17.152,56.577,40.79l-58.113,10.582c-4.608,0.768-7.68,5.291-6.827,9.899c0.683,4.096,4.267,6.997,8.363,6.997
	c0.512,0,1.024-0.085,1.536-0.171l58.113-10.496c0,0.683,0.085,1.365,0.085,2.133C153.593,361.473,126.797,388.268,93.858,388.268z
	 M316.07,320H204.452c-4.352-57.174-52.31-102.402-110.594-102.402c-26.795,0-52.993,9.557-73.132,25.942l4.011-28.075l46.251-15.36
	c2.304-0.768,4.181-2.56,5.12-4.864c1.024-2.304,0.853-4.864-0.256-7.083l-9.216-18.518l61.356,12.288v10.069
	c0,4.352,3.328,8.021,7.68,8.533l85.335,8.533c3.84,0.341,7.509-1.963,8.875-5.632c4.864-13.312,13.568-22.443,26.624-27.904
	c36.865-15.446,97.196,3.499,123.991,15.702c3.072,1.451,6.827,0.853,9.301-1.536c2.56-2.389,3.413-5.973,2.219-9.216
	l-20.907-55.724c24.918,4.096,47.361,19.798,62.294,41.643h-6.741c-4.693,0-8.533,3.84-8.533,8.533c0,4.693,3.84,8.533,8.533,8.533
	h16.384c4.779,10.667,7.851,22.187,8.875,34.134h-25.259C368.38,217.599,320.422,262.826,316.07,320z M435.197,388.268
	c-32.939,0-59.734-26.795-59.734-59.734c0-21.078,11.008-39.595,27.563-50.262l24.406,53.761c1.451,3.157,4.523,5.035,7.765,5.035
	c1.195,0,2.389-0.256,3.499-0.768c4.352-1.963,6.229-6.997,4.267-11.264l-24.406-53.846c5.291-1.536,10.838-2.389,16.64-2.389
	c32.939,0,59.734,26.795,59.734,59.734S468.137,388.268,435.197,388.268z"/>
<g>
	<path style="fill:#F4F4F4;" d="M452.802,271.453c15.138,10.846,25.054,28.544,25.054,48.547c0,32.939-26.795,59.734-59.734,59.734
		c-6.127,0-12.041-0.93-17.613-2.654c9.796,7.015,21.752,11.187,34.689,11.187c32.939,0,59.734-26.795,59.734-59.734
		C494.932,301.722,477.173,278.988,452.802,271.453z"/>
	<path style="fill:#F4F4F4;" d="M133.368,301.056l2.057,11.264l15.01-2.731c-6.067-18.065-20.583-32.265-38.802-38
		C121.652,278.843,129.358,289.109,133.368,301.056z"/>
	<path style="fill:#F4F4F4;" d="M153.507,326.4l-17.826,3.217c-4.625,28.374-29.236,50.117-58.89,50.117
		c-6.127,0-12.041-0.93-17.613-2.654c9.788,7.015,21.743,11.187,34.68,11.187c32.939,0,59.734-26.795,59.734-59.734
		C153.593,327.766,153.507,327.083,153.507,326.4z"/>
</g>
<path style="fill:#D50000;" d="M416.338,149.331l9.643,17.067c0.017,0.043,0.034,0.085,0.051,0.128
	c0.213-0.017,0.41-0.128,0.631-0.128h6.741c-6.076-8.883-13.44-16.674-21.658-23.16
	C413.326,145.226,414.896,147.223,416.338,149.331z"/>
<path style="fill:#B71C1C;" d="M443.048,183.465h-11.119c1.425,5.555,2.424,11.256,2.927,17.067h-25.259
	c-58.284,0-106.242,45.227-110.594,102.402h-97.324c1.323,5.555,2.33,11.23,2.773,17.067H316.07
	c4.352-57.174,52.31-102.402,110.594-102.402h25.259C450.899,205.652,447.827,194.132,443.048,183.465z"/>
</svg>